<svg id="Permata" xmlns="http://www.w3.org/2000/svg" xmlns:xlink="http://www.w3.org/1999/xlink" width="70" height="50" viewBox="0 0 70 50">
  <defs>
    <clipPath id="clip-path">
      <rect id="Background" width="70" height="50" rx="6.632" fill="#fff"/>
    </clipPath>
  </defs>
  <rect id="Background-2" data-name="Background" width="70" height="50" rx="6.632" fill="#fff"/>
  <g id="Permata-2" data-name="Permata" clip-path="url(#clip-path)">
    <g id="Logogram" transform="translate(25 7)">
      <path id="Fill_1" data-name="Fill 1" d="M.024,2.442,0,2.9,8.8,13.132l.316.05.04-.02.155-.283L5.559.426,4.922,0Z" transform="translate(0 4.747)" fill="#0096b8"/>
      <path id="Fill_2" data-name="Fill 2" d="M8.8,10.235l.316.05L2.627.5,0,0Z" transform="translate(0 7.644)" fill="#005675"/>
      <path id="Fill_3" data-name="Fill 3" d="M2.244,0,0,2.618l.916.4L2.881.426h0Z" transform="translate(2.678 4.747)" fill="#0bbbef"/>
      <path id="Fill_4" data-name="Fill 4" d="M0,2.589,5.565,12.736l.155-.284L1.966,0Z" transform="translate(3.594 5.174)" fill="#007290"/>
      <path id="Fill_5" data-name="Fill 5" d="M3.765.274,0,17.116l.133.316L.2,17.46l.426-.111L9.964,3.325l-.01-.732L4.261,0Z" transform="translate(9.89 4.5)" fill="#81b73e"/>
      <path id="Fill_6" data-name="Fill 6" d="M5.975.32,0,14.135l.425-.111L9.767,0Z" transform="translate(10.086 7.826)" fill="#69931d"/>
      <path id="Fill_7" data-name="Fill 7" d="M0,16.841l.133.316L5.1,2.786,3.765,0Z" transform="translate(9.889 4.774)" fill="#277933"/>
      <path id="Fill_8" data-name="Fill 8" d="M4,0,0,.051l.215,1L4.007.731,4,0Z" transform="translate(15.846 7.094)" fill="#aecc53"/>
      <path id="Fill_9" data-name="Fill 9" d="M0,.273,1.331,3.058l.861-.413L.5,0Z" transform="translate(13.654 4.501)" fill="#69931d"/>
      <path id="Fill_10" data-name="Fill 10" d="M7.514,0,.227.078,0,.51l4.026,11.5.239.159h.007l.222-.127L7.985.484Z" transform="translate(5.456 0)" fill="#e4032e"/>
      <path id="Fill_11" data-name="Fill 11" d="M0,0,4.026,11.5l.238.16L2.824,1.393,0,0Z" transform="translate(5.456 0.51)" fill="#791b15"/>
      <path id="Fill_12" data-name="Fill 12" d="M0,1.42.079,11.688.3,11.56,3.791,0Z" transform="translate(9.649 0.484)" fill="#b51227"/>
    </g>
    <g id="PermataBank" transform="translate(5 31)">
      <path id="Fill_1-2" data-name="Fill 1" d="M2.7,7.7H0V7.526c.334,0,.541-.061.634-.175a.384.384,0,0,0,.087-.136.968.968,0,0,0,.038-.261c.005-.116.013-.31.018-.576V1.32L.761.83C.757.7.751.638.748.617a.518.518,0,0,0-.024-.1A.408.408,0,0,0,.488.247,1.287,1.287,0,0,0,0,.173V0H2.749A6.706,6.706,0,0,1,3.831.084a2.931,2.931,0,0,1,.78.223,1.5,1.5,0,0,1,.855,1.454c.007,1-.642,1.61-1.877,1.768l-.213.036a4.546,4.546,0,0,1,.811.145l.041.01a2.17,2.17,0,0,1,.525.205,1.79,1.79,0,0,1,1,1.713,1.794,1.794,0,0,1-1.34,1.869,4.281,4.281,0,0,1-.741.14A8.864,8.864,0,0,1,2.7,7.7ZM1.6,3.715h0V7.462H2.663a2.355,2.355,0,0,0,1.6-.45,1.41,1.41,0,0,0,.39-.6,2.61,2.61,0,0,0,.136-.863,1.687,1.687,0,0,0-.778-1.572,2.152,2.152,0,0,0-.592-.194,4.254,4.254,0,0,0-.787-.069H1.6ZM1.6.237h0v3.21H2.678c1.254-.008,1.894-.561,1.9-1.642A1.452,1.452,0,0,0,4.2.726,2.178,2.178,0,0,0,2.613.237H1.6Z" transform="translate(37.94 0.083)"/>
      <path id="Fill_3-2" data-name="Fill 3" d="M1.479,7.838H1.435a1.456,1.456,0,0,1-1-.321,1.337,1.337,0,0,1-.318-.481A1.739,1.739,0,0,1,0,6.411c0-.834.486-1.354,1.471-1.59A8.306,8.306,0,0,1,2.3,4.664c.3-.041.63-.075.987-.1l.039-.718a4.045,4.045,0,0,0-.034-.6,1.409,1.409,0,0,0-.114-.4A.877.877,0,0,0,2.3,2.407H2.285A.973.973,0,0,0,1.2,3.434a.985.985,0,0,1-.027.233.181.181,0,0,1-.067.1.607.607,0,0,1-.336.078H.742a.515.515,0,0,1-.375-.1.23.23,0,0,1-.06-.174.978.978,0,0,1,.179-.54,1.579,1.579,0,0,1,.5-.454,2.924,2.924,0,0,1,1.472-.338,1.654,1.654,0,0,1,1.337.457,1.232,1.232,0,0,1,.217.47,2.986,2.986,0,0,1,.07.716v.061l-.005.281-.014.742-.01,1.02-.01.494c0,.21.008.386.025.608.007.091.045.395.228.465a1.5,1.5,0,0,0,.582.085,1.26,1.26,0,0,0,.473-.077.429.429,0,0,0,.231-.336,3.981,3.981,0,0,0,.041-.735V3.605a1.421,1.421,0,0,0-.142-.812.636.636,0,0,0-.546-.2H4.912V2.443l1.462-.112V3.554l.077-.143a2.23,2.23,0,0,1,.734-.862,1.848,1.848,0,0,1,1-.253h.068a1.35,1.35,0,0,1,1.267.646,1.512,1.512,0,0,1,.2.528,4.1,4.1,0,0,1,.059.791V6.484a4.213,4.213,0,0,0,.04.74.417.417,0,0,0,.23.334,1.872,1.872,0,0,0,.542.074,1.182,1.182,0,0,0,.437-.076.425.425,0,0,0,.222-.336,4.115,4.115,0,0,0,.039-.735V1.255A3.524,3.524,0,0,0,11.249.59a.367.367,0,0,0-.223-.3A1.467,1.467,0,0,0,10.56.235V.082L12.08,0c-.018.341-.033.707-.043,1.088s-.014.715-.014,1.014V5.616L13.7,3.687a1.23,1.23,0,0,0,.369-.693c.011-.24-.206-.373-.644-.4V2.445H15.6V2.6a1.537,1.537,0,0,0-.342.076,1.632,1.632,0,0,0-.323.162c-.115.073-.207.137-.281.2a2.514,2.514,0,0,0-.274.259c-.108.116-.262.287-.456.508l-.552.626,1.446,2.392a2.253,2.253,0,0,0,.457.6,1.058,1.058,0,0,0,.508.212v.156H14.458c-.034-.073-.082-.169-.15-.3l-.21-.4-.162-.3-1.07-1.833-.842.99,0,.553a4.033,4.033,0,0,0,.039.735.425.425,0,0,0,.226.336,1.245,1.245,0,0,0,.47.077v.151H8.284V7.633c.322-.01.516-.067.595-.177A.516.516,0,0,0,8.955,7.3a.946.946,0,0,0,.034-.223c0-.057.011-.158.018-.312s.012-.252.013-.281V4.325a2.992,2.992,0,0,0-.167-1.177.949.949,0,0,0-.936-.594H7.911a1.341,1.341,0,0,0-1.184.74,2.471,2.471,0,0,0-.259.634,2.8,2.8,0,0,0-.095.7V6.484a4.081,4.081,0,0,0,.04.74.416.416,0,0,0,.229.334,1.325,1.325,0,0,0,.478.075v.151h-2.2c-.174.006-.507.016-.7.016H4.169a2.851,2.851,0,0,1-.3-.022c-.05-.006-.1-.012-.164-.017-.163-.051-.224-.1-.274-.2a1.459,1.459,0,0,1-.112-.607l-.005-.1-.067.079a2.754,2.754,0,0,1-.23.242,3.122,3.122,0,0,1-.263.212,2.2,2.2,0,0,1-.626.355A2.017,2.017,0,0,1,1.479,7.838ZM3.321,4.721h0a8.96,8.96,0,0,0-1.1.15,2.6,2.6,0,0,0-.68.245A1.319,1.319,0,0,0,.838,6.378a1.4,1.4,0,0,0,.247.849.8.8,0,0,0,.652.332,1.535,1.535,0,0,0,.774-.224,1.6,1.6,0,0,0,.569-.581,1.816,1.816,0,0,0,.184-.591,5.72,5.72,0,0,0,.058-.89V4.721Z" transform="translate(44.195 0)"/>
      <path id="Fill_5-2" data-name="Fill 5" d="M2.862,7.7H0V7.433a1.606,1.606,0,0,0,.542-.08.39.39,0,0,0,.227-.3,3.166,3.166,0,0,0,.047-.685V1.338A3.282,3.282,0,0,0,.77.653a.394.394,0,0,0-.219-.3A1.474,1.474,0,0,0,.036.268V0H2.791A3.173,3.173,0,0,1,4.783.511a1.96,1.96,0,0,1,.634,1.631A1.98,1.98,0,0,1,4.257,4.19a3.474,3.474,0,0,1-.774.2,7.272,7.272,0,0,1-1.047.073H1.993V6.373a2.878,2.878,0,0,0,.05.685.394.394,0,0,0,.244.3,1.8,1.8,0,0,0,.575.08V7.7ZM1.993.3V4.16h.472a1.676,1.676,0,0,0,1.249-.422A1.605,1.605,0,0,0,4.045,3.1a3.294,3.294,0,0,0,.113-.9C4.154.941,3.621.3,2.572.3Z" transform="translate(0 0.083)"/>
      <path id="Fill_7-2" data-name="Fill 7" d="M2.577,5.665H2.56A2.533,2.533,0,0,1,.668,4.9,3.067,3.067,0,0,1,0,2.853,3.22,3.22,0,0,1,.646.779,2.377,2.377,0,0,1,2.466,0,2.277,2.277,0,0,1,3.745.347a2.009,2.009,0,0,1,.732,1.008,2.614,2.614,0,0,1,.116.5,7.005,7.005,0,0,1,.053.757H1.316a7,7,0,0,0,.062.94,3.093,3.093,0,0,0,.183.692A1.377,1.377,0,0,0,2.843,5.265a1.476,1.476,0,0,0,.891-.3A2.275,2.275,0,0,0,4.4,4.1l.236.164a2.634,2.634,0,0,1-.85,1.069A2.113,2.113,0,0,1,2.577,5.665ZM2.447.236H2.438c-.407,0-.715.307-.915.9a3.506,3.506,0,0,0-.123.51,6.612,6.612,0,0,0-.074.67H3.408c-.008-.312-.024-.569-.049-.764a2.672,2.672,0,0,0-.112-.518c-.174-.532-.443-.8-.8-.8Z" transform="translate(5.378 2.248)"/>
      <path id="Fill_9-2" data-name="Fill 9" d="M.039.154,1.886.02c.01.194.017.356.022.488s.007.248.007.349v.31Q2.518.01,3.37,0a.86.86,0,0,1,.6.225.76.76,0,0,1,.237.559.592.592,0,0,1-.2.454.756.756,0,0,1-.508.175.406.406,0,0,1-.462-.33A.874.874,0,0,0,2.923.795.193.193,0,0,0,2.751.722H2.732q-.29.026-.551.486A2.029,2.029,0,0,0,2,1.714a3.1,3.1,0,0,0-.059.64v1.91a3.228,3.228,0,0,0,.042.674.364.364,0,0,0,.217.284,1.657,1.657,0,0,0,.527.075v.247H0V5.3a1.3,1.3,0,0,0,.495-.068A.375.375,0,0,0,.7,4.938a3.3,3.3,0,0,0,.044-.674V1.4A1.585,1.585,0,0,0,.625.574Q.49.383.039.4Z" transform="translate(10.198 2.24)"/>
      <path id="Fill_11-2" data-name="Fill 11" d="M1.936.02l.01,1.022A1.9,1.9,0,0,1,3.655,0a1.289,1.289,0,0,1,1.4,1.085A2.283,2.283,0,0,1,5.781.26,1.714,1.714,0,0,1,6.74,0,1.456,1.456,0,0,1,8.018.6a1.45,1.45,0,0,1,.228.55,4.161,4.161,0,0,1,.067.844V4.264a3.277,3.277,0,0,0,.043.673.377.377,0,0,0,.209.291,1.3,1.3,0,0,0,.5.068v.248H6.4V5.3a1.2,1.2,0,0,0,.474-.068.375.375,0,0,0,.2-.291,3.352,3.352,0,0,0,.042-.673V2A2.606,2.606,0,0,0,6.924.829.644.644,0,0,0,6.3.475a1,1,0,0,0-.874.568,1.9,1.9,0,0,0-.3,1.043V4.264a3.383,3.383,0,0,0,.042.673.377.377,0,0,0,.2.291,1.229,1.229,0,0,0,.481.068v.248H3.213V5.3a1.2,1.2,0,0,0,.474-.068.375.375,0,0,0,.2-.291,3.334,3.334,0,0,0,.042-.673V1.993Q3.938.459,3.134.475a1.05,1.05,0,0,0-.837.5,2.093,2.093,0,0,0-.351,1.2v2.1a3.408,3.408,0,0,0,.042.678.37.37,0,0,0,.2.288,1.232,1.232,0,0,0,.474.065v.248H0V5.3a1.335,1.335,0,0,0,.5-.065A.37.37,0,0,0,.7,4.943a3.286,3.286,0,0,0,.043-.678V1.394A1.515,1.515,0,0,0,.626.577C.536.452.334.395.02.4V.154Z" transform="translate(14.662 2.24)"/>
      <path id="Fill_13" data-name="Fill 13" d="M1.759,2.013V5.462a5.311,5.311,0,0,0,.023.558,1.759,1.759,0,0,0,.075.372.61.61,0,0,0,.193.277.469.469,0,0,0,.289.105,1.141,1.141,0,0,0,.688-.32l.137.257a1.957,1.957,0,0,1-1.346.517A1.168,1.168,0,0,1,.707,6.659a1.226,1.226,0,0,1-.091-.28,2.94,2.94,0,0,1-.045-.425Q.56,5.687.56,5.234V2.013H0V1.7a1.17,1.17,0,0,0,.544-.142,1.12,1.12,0,0,0,.39-.406A2.165,2.165,0,0,0,1.148.689,4.441,4.441,0,0,0,1.3.051L1.789,0c-.007.136-.013.275-.017.416s-.008.31-.01.507,0,.451,0,.759H2.948v.331Z" transform="translate(28.948 0.72)"/>
      <path id="Fill_15" data-name="Fill 15" d="M1.526,5.689H1.514a1.52,1.52,0,0,1-1.107-.41A1.535,1.535,0,0,1,0,4.172c0-.882.527-1.438,1.572-1.652a11.426,11.426,0,0,1,1.611-.2V1.652A2.51,2.51,0,0,0,3.021.535a.6.6,0,0,0-.568-.3H2.391a.667.667,0,0,0-.632.351.988.988,0,0,0-.1.285,3.56,3.56,0,0,0-.052.447.508.508,0,0,1-.153.392.672.672,0,0,1-.433.114H1c-.453,0-.685-.163-.689-.475A.976.976,0,0,1,.476.83,1.475,1.475,0,0,1,.924.392,2.885,2.885,0,0,1,2.509,0H2.56A2.009,2.009,0,0,1,3.99.424a1.182,1.182,0,0,1,.291.5,2.706,2.706,0,0,1,.092.78l-.01.9-.01.9c-.007.277-.011.478-.009.558a5.619,5.619,0,0,0,.033.815.46.46,0,0,0,.161.34A.826.826,0,0,0,5,5.323h.015v.219c-.287.02-.4.02-.706.02a1.941,1.941,0,0,1-.694-.086.676.676,0,0,1-.294-.2c-.011-.019-.022-.035-.032-.049a.611.611,0,0,1-.1-.375,2.643,2.643,0,0,1-.792.635A1.954,1.954,0,0,1,1.526,5.689ZM3.183,2.561a2.9,2.9,0,0,0-1.5.409,1.2,1.2,0,0,0-.428,1.045,1.632,1.632,0,0,0,.217.885.677.677,0,0,0,.579.334.958.958,0,0,0,.553-.182,1.207,1.207,0,0,0,.4-.5,1.677,1.677,0,0,0,.137-.479,5.133,5.133,0,0,0,.04-.718V2.561Z" transform="translate(23.927 2.242)"/>
      <path id="Fill_17" data-name="Fill 17" d="M1.526,5.689H1.514a1.523,1.523,0,0,1-1.107-.41A1.535,1.535,0,0,1,0,4.172C0,3.29.527,2.734,1.572,2.52a11.289,11.289,0,0,1,1.611-.2V1.652A2.517,2.517,0,0,0,3.021.534a.593.593,0,0,0-.568-.3H2.394a.67.67,0,0,0-.635.351.988.988,0,0,0-.1.285,3.714,3.714,0,0,0-.052.447.514.514,0,0,1-.153.392.672.672,0,0,1-.433.114H1c-.453,0-.685-.163-.689-.474A.978.978,0,0,1,.476.83,1.461,1.461,0,0,1,.924.393,2.878,2.878,0,0,1,2.509,0H2.56A2.009,2.009,0,0,1,3.99.424a1.174,1.174,0,0,1,.291.5,2.7,2.7,0,0,1,.092.779l-.01.9-.009.9c-.009.312-.012.484-.01.558a5.616,5.616,0,0,0,.033.815.462.462,0,0,0,.161.34.806.806,0,0,0,.455.109h.024v.219c-.286.02-.4.021-.706.021a1.941,1.941,0,0,1-.694-.085.655.655,0,0,1-.293-.2c-.011-.019-.022-.035-.032-.05a.606.606,0,0,1-.1-.375,2.656,2.656,0,0,1-.792.635A1.965,1.965,0,0,1,1.526,5.689ZM3.183,2.561a2.907,2.907,0,0,0-1.5.41,1.2,1.2,0,0,0-.428,1.045,1.639,1.639,0,0,0,.217.885.677.677,0,0,0,.579.334.958.958,0,0,0,.553-.182,1.207,1.207,0,0,0,.4-.5,1.672,1.672,0,0,0,.136-.479,4.984,4.984,0,0,0,.04-.718v-.8Z" transform="translate(32.386 2.243)"/>
    </g>
  </g>
</svg>
