<?xml version="1.0" encoding="UTF-8"?>
<svg width="70px" height="50px" viewBox="0 0 70 50" version="1.1" xmlns="http://www.w3.org/2000/svg" xmlns:xlink="http://www.w3.org/1999/xlink">
    <!-- Generator: Sketch 63.1 (92452) - https://sketch.com -->
    <title>ewallet/linkaja</title>
    <desc>Created with Sketch.</desc>
    <g id="PREVIEW" stroke="none" stroke-width="1" fill="none" fill-rule="evenodd">
        <g transform="translate(-630.000000, -320.000000)">
            <rect fill="#FAFAFA" x="0" y="0" width="1700" height="720"></rect>
            <g id="ewallet" transform="translate(630.000000, 60.000000)">
                <g id="ewallet/linkaja" transform="translate(0.000000, 260.000000)">
                    <g id="LINKAJA">
                        <rect id="Background" fill="#E82529" x="0" y="0" width="70" height="50" rx="4"></rect>
                        <g id="logo" transform="translate(17.000000, 8.000000)" fill="#FEFEFE" fill-rule="nonzero">
                            <path d="M32.8681003,29.8595389 C34.5487097,29.8939209 36.2288059,29.9683295 37.9032572,30.1135547 C38.346117,30.1571736 38.7905163,30.1874502 39.2302972,30.259293 C36.1815948,30.2993198 33.1354583,30.463532 30.0959929,30.7016397 C26.3370728,30.9992743 22.5879028,31.4200681 18.8561803,31.9629947 C14.7252168,32.5654483 10.6075957,33.2813109 6.54488293,34.2486234 C5.59553108,34.4713362 4.64977138,34.7109834 3.70195903,34.9419069 C3.21445403,35.0609607 2.68435648,34.9963022 2.24354933,34.7546023 C1.49484428,34.3456113 0.748705049,33.9304623 0,33.5209581 C2.16093006,32.9646892 4.35264991,32.5356848 6.54796191,32.1405492 C11.0848374,31.3389883 15.6586606,30.7606534 20.2453129,30.3331885 C24.4404218,29.9560136 28.6560571,29.777946 32.8681003,29.8595389 Z M17.5891804,16.8472607 C17.678984,16.92988 17.672826,17.0586839 17.6553785,17.169014 C17.4598633,18.6525687 17.2715324,20.1371497 17.062675,21.6186518 C16.8969233,22.7866111 16.8004487,23.968939 16.5115378,25.1163719 C16.3252596,25.8543005 16.068678,26.5881238 15.6355683,27.2203408 C15.1526818,27.9023347 14.41424,28.3508393 13.6573243,28.6715662 C13.1841879,28.8614366 12.6966829,29.0282146 12.1932698,29.114426 C12.0116101,29.1328999 11.9495173,28.9271215 11.898201,28.7936991 C11.7088438,28.2163905 11.5199998,27.639082 11.335261,27.0602339 C11.2741946,26.9334826 11.3532217,26.7954417 11.4804862,26.7559282 C11.8371346,26.6065977 12.2035331,26.4757411 12.5370891,26.2766338 C12.9214483,26.0636711 13.2534649,25.7485889 13.4561644,25.3565322 C13.7235224,24.8572245 13.7779177,24.2840212 13.867208,23.7344235 C14.1961456,21.5370588 14.4860828,19.3340494 14.7914149,17.1330926 C14.804244,16.9678541 14.920732,16.8123656 15.0864837,16.7764442 C15.7972147,16.7487334 16.5110246,16.7743916 17.2232951,16.7636151 C17.3469674,16.7677204 17.4968111,16.7436018 17.5891804,16.8472607 Z M30.16527,23.6692518 C30.6132614,23.9042805 30.9042249,24.406154 30.8760009,24.9126461 C30.8375137,25.6423641 30.3084425,26.2976735 29.630554,26.5460444 C29.1471543,26.7312963 28.570872,26.7071777 28.1346833,26.4151878 C27.7857324,26.1899092 27.5460852,25.7927209 27.5440326,25.3729534 C27.554809,24.5375238 28.1695784,23.7349366 28.995258,23.5553295 C29.3826961,23.4650128 29.8106742,23.4727103 30.16527,23.6692518 Z M26.3083357,16.9858148 C26.5197589,17.0514997 26.752735,17.0694604 26.9431185,17.1905669 C27.0652513,17.272673 27.0616592,17.4348325 27.0436985,17.565176 C26.7681299,19.7379088 26.4941007,21.9111548 26.2185321,24.0838876 C26.1769659,24.31789 26.1933871,24.5719058 26.0768991,24.7858948 C25.9860692,24.9547255 25.8131332,25.053766 25.6386577,25.1163719 C24.3403549,25.6336403 22.9194062,25.833774 21.5277077,25.7029174 C20.679449,25.6285087 19.7721765,25.4540332 19.1286699,24.8531192 C18.5180057,24.286587 18.3029904,23.4270387 18.2645031,22.6223989 C18.2296081,21.7028105 18.3286485,20.7739852 18.57548,19.8872393 C18.8387327,18.9512297 19.3447116,18.0511415 20.1421671,17.4712671 C20.9534781,16.8636819 21.9849361,16.6491797 22.9794463,16.612232 C24.1001946,16.5527051 25.2265877,16.690746 26.3083357,16.9858148 Z M9.82861398,13.8555195 C10.2755791,13.8606511 10.6794385,14.2172995 10.7451234,14.6581067 C11.3291031,18.144024 11.9156485,21.6299414 12.4975756,25.1158587 C12.5499182,25.3062422 12.3964824,25.5186918 12.196862,25.5166391 C11.3911958,25.5227971 10.5850165,25.5186918 9.77935032,25.5186918 C9.56741393,25.5294682 9.36984612,25.3565322 9.35599071,25.1440827 C9.29184532,24.5441949 9.24206849,23.9427677 9.17638361,23.34288 C9.17535728,23.2582081 9.09684332,23.1956022 9.01422405,23.2053523 C8.05614843,23.2002206 7.09755965,23.2053523 6.13948403,23.2027864 C6.05378578,23.198168 5.94653468,23.2079181 5.9198502,23.3064454 C5.64325526,23.9402019 5.37948939,24.5796032 5.10289445,25.2133597 C5.03772273,25.3698745 4.87248419,25.4699413 4.70416668,25.4642965 C3.89798735,25.4709676 3.09180803,25.4766124 2.28562871,25.4781519 C2.10396895,25.5053495 1.96028327,25.2918737 2.05778427,25.1343326 C3.62447139,21.6581653 5.19475066,18.1830244 6.76297727,14.7073703 C6.92257101,14.3286559 7.25099543,14.0253765 7.64715739,13.9119675 C7.88885724,13.8390983 8.14338617,13.85398 8.3922703,13.8534669 C8.87105153,13.8555195 9.35034592,13.8493615 9.82861398,13.8555195 Z M21.9536331,19.5834467 C21.657538,19.9231607 21.5179576,20.3634547 21.4266145,20.7965644 C21.3142318,21.3199908 21.2228888,21.8767728 21.3783772,22.4012256 C21.4820362,22.757874 21.7714602,23.0739825 22.1481219,23.1355621 C22.5925212,23.2161287 23.0482101,23.125812 23.4767014,23.003166 C23.6398872,21.7336003 23.80256,20.4640347 23.9657458,19.194469 C23.7055721,19.1354552 23.4433457,19.0831126 23.1780404,19.0595071 C22.7151672,19.0153751 22.2492151,19.2303904 21.9536331,19.5834467 Z M31.7955893,15.2708235 C31.9839202,15.2908369 32.01471,15.5181681 31.9741701,15.6669855 C31.521047,17.9095085 31.067924,20.1525446 30.6127482,22.3945545 C30.5953007,22.5413191 30.4572598,22.6547282 30.309982,22.6413859 C29.7603842,22.6418991 29.2107865,22.6449781 28.6617019,22.6403596 C28.4836343,22.6485702 28.3471329,22.465371 28.3856201,22.2960271 C28.6001223,20.0704385 28.8120587,17.8443367 29.0291267,15.6192613 C29.0322057,15.4617202 29.1486937,15.325732 29.3000769,15.2892974 C29.4606969,15.2487575 29.6290145,15.2656919 29.7932267,15.2626129 C30.4608519,15.269284 31.1289904,15.2518365 31.7955893,15.2708235 Z M8.41998111,17.1761983 C7.95608161,18.2984861 7.52605089,19.4356557 7.07190149,20.5620488 C7.0508618,20.62876 6.98158478,20.7365243 7.07754629,20.7780905 C7.60353852,20.7929722 8.13158341,20.7821958 8.65808882,20.7837353 C8.75969512,20.7950249 8.85873561,20.7067608 8.8366696,20.6010492 C8.74070808,19.4859457 8.63704913,18.3708421 8.53441649,17.2562518 C8.54981139,17.1900537 8.47488957,17.1259083 8.41998111,17.1761983 Z M17.6671812,13.0714062 C18.0895145,13.3115666 18.3271091,13.8108743 18.2917008,14.2896555 C18.2275554,15.1774278 17.4937321,15.9820676 16.6049335,16.093424 C16.1985083,16.1508983 15.7643722,16.0256865 15.4698166,15.7357493 C15.2204193,15.4966153 15.0849442,15.1481775 15.0972601,14.8033319 C15.1501159,13.932494 15.7972147,13.0862879 16.6798553,12.9349048 C17.0113587,12.8722989 17.3726256,12.8943649 17.6671812,13.0714062 Z M34.9772009,3.9324835 C35.1675844,3.92683871 35.2502037,4.19060457 35.1075443,4.30760577 C34.112521,5.41141973 33.1149318,6.51266786 32.1178558,7.61494233 C33.030773,9.57163345 33.9452298,11.5278114 34.8560944,13.486042 C34.9828457,13.6928468 34.8104229,13.9879156 34.5671835,13.9714944 C33.7958993,13.9745734 33.0241019,13.9740602 32.2528177,13.9720075 C32.1034872,13.9832971 31.9793017,13.876046 31.9290117,13.7426236 C30.9770941,11.6725234 30.0220974,9.60344957 29.0696666,7.53334939 C30.0457029,6.39617983 31.0196866,5.25747078 31.9952098,4.12030122 C32.0942503,3.9966289 32.2481992,3.92324657 32.4072798,3.92991769 C33.2637491,3.93043085 34.1207316,3.92478605 34.9772009,3.9324835 Z M5.62221557,0.945873918 C5.88136296,0.949979223 6.14102352,0.936636981 6.39965775,0.951518712 C6.57105425,0.95921616 6.70704249,1.13523112 6.67368688,1.3040618 C6.2959988,3.95506268 5.90496847,6.60452407 5.52728038,9.25552495 C5.46775346,9.55675172 5.73203248,9.85951799 6.03787773,9.84566258 C7.47319508,9.85079421 8.90851244,9.84617574 10.3438298,9.84771523 C10.4746864,9.82770187 10.6081088,9.94316358 10.5788585,10.0791518 C10.4736601,10.8319622 10.3592247,11.5842594 10.2478683,12.3360434 C10.2417103,12.4684395 10.1226565,12.5803091 9.98923405,12.5726116 C8.36302,12.5756906 6.73629279,12.5741511 5.11007874,12.5731248 C4.04629151,12.5777432 2.95633296,11.9563027 2.5447761,10.9525555 C2.41135368,10.6287496 2.37286645,10.268509 2.42213011,9.92263706 L3.57674722,1.24812702 L3.57674722,1.24812702 C3.58444466,1.12240204 3.66552444,1.00129554 3.7886836,0.963834628 C4.39729511,0.921755249 5.01155141,0.95767667 5.62221557,0.945873918 Z M28.4625946,0.484027075 C28.8556776,0.486592891 29.2487606,0.479408606 29.6418435,0.486079727 C29.747042,0.475303301 29.8394114,0.579475422 29.8127269,0.68313438 C29.2805767,4.55084511 28.7412422,8.41804267 28.2075525,12.2852402 C28.1952366,12.3647805 28.1818944,12.4627947 28.0967093,12.4992293 C27.9966425,12.5254006 27.8924703,12.5151373 27.790864,12.51719 C27.020093,12.5135978 26.2493219,12.5187295 25.479064,12.5151373 C25.3528259,12.5341244 25.2455748,12.4089126 25.2814962,12.2872929 C25.8141595,8.41804267 26.3529809,4.54981878 26.8876969,0.681081728 C26.8964206,0.612831028 26.9138682,0.530724922 26.985711,0.501987785 C27.4747555,0.459908406 27.9709843,0.495829827 28.4625946,0.484027075 Z M21.119743,3.64254632 C21.9654359,3.64767795 22.8547476,3.84011413 23.5146754,4.39843565 C24.1181553,4.89928289 24.4465797,5.66902763 24.5132909,6.43928553 C24.5743573,6.99042277 24.4609483,7.53796786 24.3978292,8.08346029 C24.2136036,9.47054031 24.0016673,10.853515 23.7953757,12.2370029 C23.7909771,12.3720381 23.6813906,12.47842 23.5528993,12.4928095 L23.4874778,12.492045 C22.7146541,12.4894792 21.9418303,12.4966635 21.1690066,12.488966 C20.9924785,12.4899923 20.8662404,12.3006351 20.9119119,12.1353966 C21.0658608,11.0557013 21.217244,9.9749797 21.3824825,8.89631074 C21.4681807,8.30001515 21.5908267,7.70577221 21.598011,7.10126601 C21.5923662,6.83236851 21.5923662,6.52395745 21.3927458,6.3171527 C21.1741383,6.09392673 20.8559771,6.00720215 20.5547503,5.96974124 C20.1647463,5.9230434 19.7711502,5.9620438 19.3857647,6.02516286 C19.0819721,8.16710589 18.7776663,10.3085358 18.4743869,12.4504788 C18.0181848,12.0604748 17.4193234,11.8090248 16.8117382,11.875736 C16.36426,11.8906178 15.9609137,12.1035805 15.5893836,12.3339907 C15.8731628,10.3849971 16.1533499,8.43600338 16.4479056,6.4885492 L16.5714496,5.70469247 C16.6142987,5.44362071 16.6626643,5.18357528 16.7280927,4.9269937 C16.8060935,4.63346438 16.9292526,4.32864546 17.182242,4.14236723 C17.528114,3.87911453 17.974566,3.81650863 18.3933071,3.7569817 C19.2980138,3.65588856 20.2099047,3.64870428 21.119743,3.64254632 Z M12.6556298,3.85910117 C13.3745714,3.86474597 14.093513,3.8544827 14.8124546,3.86371964 C14.9956538,3.86218015 15.1383132,4.05256368 15.0987996,4.22909181 C14.7308616,6.86675044 14.3562525,9.50338275 13.9867751,12.1405282 C13.9826698,12.3278328 13.826155,12.5023083 13.6321793,12.4910187 C12.8434475,12.4930713 12.0547158,12.4925582 11.265984,12.4910187 C11.1253773,12.5105189 10.9940075,12.3760701 11.0294158,12.2354634 C11.4004327,9.54648846 11.7806866,6.85853983 12.1547826,4.17007804 C12.1635064,4.04589256 12.2353492,3.9227334 12.357482,3.88014086 C12.4539567,3.85191689 12.5560762,3.86166699 12.6556298,3.85910117 Z M15.0500491,0.186905606 C15.4605796,0.436302901 15.6838056,0.932531676 15.6437789,1.40566811 C15.5714229,2.26008477 14.8842974,3.03085583 14.0360387,3.17915998 C13.6434689,3.25151599 13.2149777,3.16427825 12.904514,2.90615718 C12.5976424,2.65983887 12.4262459,2.26008477 12.451904,1.86802811 C12.5196416,1.01976941 13.1431348,0.200247848 14.0011436,0.0375751266 C14.3531736,-0.0347808788 14.7416381,-0.0116885367 15.0500491,0.186905606 Z" id="shape"></path>
                        </g>
                    </g>
                </g>
            </g>
        </g>
    </g>
</svg>