<?xml version="1.0" encoding="UTF-8"?>
<svg width="70px" height="50px" viewBox="0 0 70 50" version="1.1" xmlns="http://www.w3.org/2000/svg" xmlns:xlink="http://www.w3.org/1999/xlink">
    <!-- Generator: Sketch 63.1 (92452) - https://sketch.com -->
    <title>ewallet/ovo</title>
    <desc>Created with Sketch.</desc>
    <g id="PREVIEW" stroke="none" stroke-width="1" fill="none" fill-rule="evenodd">
        <g transform="translate(-760.000000, -320.000000)">
            <rect fill="#FAFAFA" x="0" y="0" width="1700" height="720"></rect>
            <g id="ewallet" transform="translate(630.000000, 60.000000)">
                <g id="ewallet/ovo" transform="translate(130.000000, 260.000000)">
                    <g id="OVO">
                        <rect id="Background" fill="#4C3494" x="0" y="0" width="70" height="50" rx="4"></rect>
                        <g id="logo" transform="translate(10.000000, 17.000000)" fill="#FFFFFF" fill-rule="nonzero">
                            <path d="M47.1851255,1.96011167 C48.9372675,3.46439564 49.9470594,5.75815329 49.9592993,8.05925488 C50.007035,10.1339183 49.2591769,12.2293895 47.8534242,13.7648852 C47.0835343,14.6173944 46.123314,15.297933 45.0645625,15.7434654 C42.9874511,16.6131105 40.5510986,16.5855707 38.4923471,15.673698 C36.6796176,14.8707604 35.2010374,13.3566845 34.4274756,11.5323271 C33.3858599,9.11066247 33.5474266,6.19572979 34.8968758,3.92461596 C35.9005478,2.20246174 37.5816984,0.889120243 39.498467,0.337712654 C40.0217228,0.182877893 40.5608905,0.0861826661 41.1043422,0.0366110627 C43.2793728,-0.170855278 45.5406947,0.507847293 47.1851255,1.96011167 Z M11.8430203,0.885448272 C13.4599113,1.70307373 14.7701929,3.10148254 15.497855,4.75937728 C16.1116861,6.14799417 16.3350643,7.70307373 16.1545258,9.20919368 C15.9678673,10.8242488 15.3032406,12.3866723 14.2359211,13.6167824 C13.1165821,14.919108 11.5633385,15.8419966 9.88157596,16.1920578 C8.13126996,16.5598669 6.25672896,16.3787163 4.63065797,15.6222904 C2.9886751,14.8628045 1.626374,13.5182512 0.842408273,11.8885082 C-0.0113248971,10.1437102 -0.216955252,8.10025855 0.229189179,6.21347765 C0.598834222,4.62412636 1.45379138,3.14615819 2.67166164,2.0568069 C3.85893214,0.973575567 5.3889199,0.28324509 6.98071917,0.0782267297 C8.63188196,-0.140867518 10.3589321,0.116170426 11.8430203,0.885448272 Z M32.7120533,0.442881136 C32.6998134,0.955827709 32.7383691,1.47357557 32.6930815,1.98336749 C30.6594217,6.7814091 28.6080141,11.5727188 26.5712944,16.3701484 C26.1765576,16.3640284 25.7744768,16.4007481 25.3883079,16.299769 C24.5786384,16.1118865 23.8827999,15.5188632 23.5517106,14.7587653 C21.8601561,10.8646404 20.1710496,6.96867961 18.4782712,3.07455476 C17.9495074,3.07455476 17.4213556,3.07516675 16.8925919,3.07394276 L16.8925919,0.443587807 L16.8925919,0.443587807 C19.0553826,0.442881136 21.2175613,0.442363817 23.37974,0.443587807 L23.37974,3.07394276 L23.37974,3.07394276 L21.7995686,3.07516675 L21.7995686,3.07516675 L25.5315148,11.9136 L25.5315148,11.9136 C26.7420411,8.97112759 27.9360435,6.02131119 29.1386139,3.07516675 C28.6165821,3.07394276 28.0945503,3.07516675 27.5725184,3.07455476 C27.5712944,2.19756578 27.5719064,1.32057679 27.5725184,0.442881136 L32.7120533,0.442881136 L32.7120533,0.442881136 Z M7.47276323,2.70980568 C6.67288563,2.81262085 5.89626384,3.11005048 5.24142908,3.58312269 C4.36994805,4.20368573 3.72245723,5.11433444 3.36994805,6.12045439 C2.95562737,7.30160494 2.91584769,8.60882648 3.23286115,9.81812881 C3.55415858,11.042731 4.29773263,12.170638 5.35709616,12.8774923 C6.38279995,13.5800627 7.68206556,13.8450566 8.90605576,13.6522781 C9.90544377,13.4974434 10.8528122,13.0182512 11.5651745,12.299157 C12.3938159,11.4913234 12.9121757,10.3964642 13.1025062,9.26182526 C13.3087485,8.01825121 13.1600337,6.70307373 12.6129101,5.56231486 C12.13127,4.53905904 11.3130325,3.66819001 10.2934487,3.17063799 C9.42747559,2.73795745 8.43053557,2.58618267 7.47276323,2.70980568 Z M41.1955294,2.71347765 C39.8154805,2.88483628 38.5406947,3.68838585 37.7677449,4.84077263 C36.5082589,6.69634178 36.4439995,9.27528915 37.5590545,11.2128657 C38.0578305,12.0757787 38.8099725,12.793037 39.7096053,13.2257175 C40.8503642,13.7783491 42.2065454,13.8628045 43.4109517,13.4705156 C44.3699481,13.1608461 45.2145013,12.5329391 45.8160925,11.7275535 C47.0847583,10.0274311 47.2732528,7.63820225 46.4329835,5.71041767 C46.007647,4.7440774 45.2958966,3.89646418 44.3852479,3.35607251 C43.4372675,2.78263309 42.2897767,2.56476284 41.1955294,2.71347765 Z" id="Combined-Shape"></path>
                        </g>
                    </g>
                </g>
            </g>
        </g>
    </g>
</svg>